<?xml version="1.0" encoding="utf-8"?>
<!-- Generator: Adobe Illustrator 16.0.0, SVG Export Plug-In . SVG Version: 6.00 Build 0)  -->
<!DOCTYPE svg PUBLIC "-//W3C//DTD SVG 1.1//EN" "http://www.w3.org/Graphics/SVG/1.1/DTD/svg11.dtd">
<svg version="1.1" id="Layer_1" xmlns="http://www.w3.org/2000/svg" xmlns:xlink="http://www.w3.org/1999/xlink" x="0px" y="0px"
	 width="512px" height="512px" viewBox="0 0 512 512" enable-background="new 0 0 512 512" xml:space="preserve">
<path d="M324.695,80.783h-0.811V34.225c0-13.398-10.881-24.285-24.285-24.285c-13.42,0-24.287,10.887-24.287,24.285v46.559h-88.008
	c-31.797,0-57.57,25.787-57.57,57.553V444.49c0,31.779,25.773,57.57,57.57,57.57h137.391c31.797,0,57.57-25.791,57.57-57.57V138.336
	C382.266,106.57,356.492,80.783,324.695,80.783z M239.48,440.357c0,5.086-4.15,9.234-9.234,9.234H193.65
	c-5.086,0-9.219-4.148-9.219-9.234v-36.596c0-5.086,4.133-9.217,9.219-9.217h36.596c5.084,0,9.234,4.131,9.234,9.217V440.357z
	 M239.48,357.773c0,5.086-4.15,9.223-9.234,9.223H193.65c-5.086,0-9.219-4.137-9.219-9.223v-36.59c0-5.104,4.133-9.24,9.219-9.24
	h36.596c5.084,0,9.234,4.137,9.234,9.24V357.773z M327.6,440.357c0,5.086-4.15,9.234-9.236,9.234h-36.59
	c-5.086,0-9.236-4.148-9.236-9.234v-36.596c0-5.086,4.15-9.217,9.236-9.217h36.59c5.086,0,9.236,4.131,9.236,9.217V440.357z
	 M327.6,357.773c0,5.086-4.15,9.223-9.236,9.223h-36.59c-5.086,0-9.236-4.137-9.236-9.223v-36.59c0-5.104,4.15-9.24,9.236-9.24
	h36.59c5.086,0,9.236,4.137,9.236,9.24V357.773z M344.123,249.049c0,10.201-8.287,18.488-18.494,18.488H186.402
	c-10.225,0-18.508-8.287-18.508-18.488v-105.24c0-10.207,8.283-18.488,18.508-18.488h139.227c10.207,0,18.494,8.281,18.494,18.488
	V249.049z"/>
</svg>
